<?xml version="1.0" encoding="UTF-8" standalone="no"?>
<svg width="18px" height="13px" viewBox="0 0 18 13" version="1.1" xmlns="http://www.w3.org/2000/svg" xmlns:xlink="http://www.w3.org/1999/xlink">
    <!-- Generator: Sketch 44.1 (41455) - http://www.bohemiancoding.com/sketch -->
    <title>gb</title>
    <desc>Created with Sketch.</desc>
    <defs></defs>
    <g id="Symbols" stroke="none" stroke-width="1" fill="none" fill-rule="evenodd">
        <g id="header-home" transform="translate(-1337.000000, -23.000000)">
            <g id="header">
                <g id="gb" transform="translate(1337.000000, 23.000000)">
                    <polygon id="Fill-1" fill="#00267F" points="0 12.972973 17.2973784 12.972973 17.2973784 0 0 0"></polygon>
                    <path d="M5.40540541e-06,3.61261351 L5.74805946,6.48664054 L8.64887027,5.03623514 L5.40540541e-06,0.711802703 L5.40540541e-06,3.61261351 Z M8.64887027,5.03623514 L11.5496811,6.48664054 L17.2973838,3.61274865 L17.2973838,0.711964865 L8.64887027,5.03623514 Z M8.64884324,7.93704595 L17.2973838,12.2613162 L17.2973838,9.36050541 L11.5496811,6.48664054 L8.64884324,7.93704595 Z M5.40540541e-06,9.36064054 L5.40540541e-06,12.2614784 L8.64884324,7.93704595 L5.74805946,6.48664054 L5.40540541e-06,9.36064054 Z" id="Fill-2" fill="#FFFFFF"></path>
                    <polygon id="Fill-3" fill="#FFFFFF" points="6.48669459 1.35135135e-05 6.48669459 4.32441892 1.89189189e-05 4.32441892 1.89189189e-05 8.64882432 6.48669459 8.64882432 6.48669459 12.9729865 10.8111 12.9729865 10.8111 8.64882432 17.2973973 8.64882432 17.2973973 4.32441892 10.8111 4.32441892 10.8111 1.35135135e-05"></polygon>
                    <polygon id="Fill-4" fill="#F31830" points="7.35157027 1.35135135e-05 7.35157027 5.18928378 2.7027027e-06 5.18928378 2.7027027e-06 7.78393243 7.35157027 7.78393243 7.35157027 12.9729865 9.94621892 12.9729865 9.94621892 7.78393243 17.2974081 7.78393243 17.2974081 5.18928378 9.94621892 5.18928378 9.94621892 1.35135135e-05"></polygon>
                    <path d="M11.0394297,4.32441622 L12.9733216,4.32441622 L17.2974027,2.16236216 L17.2974027,1.19544324 L11.0394297,4.32441622 Z M-2.7027027e-06,3.12911892 L2.39061892,4.32441622 L4.32448378,4.32441622 L-2.7027027e-06,2.16217297 L-2.7027027e-06,3.12911892 Z M12.9733216,8.64882162 L17.2974027,10.8108486 L17.2974027,9.84392973 L14.9071865,8.64882162 L12.9733216,8.64882162 Z M4.32448378,8.64882162 L-2.7027027e-06,10.8110649 L-2.7027027e-06,11.7780108 L6.25837568,8.64882162 L4.32448378,8.64882162 Z" id="Fill-5" fill="#F31830"></path>
                </g>
            </g>
        </g>
    </g>
</svg>